<svg width="30" height="31" viewBox="0 0 30 31" fill="none" xmlns="http://www.w3.org/2000/svg">
<path d="M30 15.4095C30 7.0908 23.283 0.344849 15 0.344849C6.717 0.344849 0 7.0908 0 15.4095C0 23.7282 6.717 30.4742 15 30.4742C15.0881 30.4742 15.1758 30.4723 15.2637 30.4707V18.7435H12.041V14.9716H15.2637V12.1959C15.2637 8.97687 17.2204 7.22481 20.0796 7.22481C21.4487 7.22481 22.6257 7.32733 22.9688 7.37308V10.7374H20.9972C19.4417 10.7374 19.1405 11.4799 19.1405 12.5693V14.9716H22.8598L22.375 18.7435H19.1405V29.8921C25.4102 28.087 30 22.2858 30 15.4095Z" fill="#2F3035"/>
</svg>
