<svg xmlns="http://www.w3.org/2000/svg" viewBox="53 25 249 32">
  <path fill="#FFF" d="M113 31v20c0 3.3-2.7 6-6 6H59c-3.3 0-6-2.7-6-6V31c0-3.3 2.7-6 6-6h48c3.3 0 6 2.7 6 6zm57-6h-48c-3.3 0-6 2.7-6 6v20c0 3.3 2.7 6 6 6h48c3.3 0 6-2.7 6-6V31c0-3.3-2.7-6-6-6zm63 0h-48c-3.3 0-6 2.7-6 6v20c0 3.3 2.7 6 6 6h48c3.3 0 6-2.7 6-6V31c0-3.3-2.7-6-6-6zm63 0h-48c-3.3 0-6 2.7-6 6v20c0 3.3 2.7 6 6 6h48c3.3 0 6-2.7 6-6V31c0-3.3-2.7-6-6-6z"/>
  <path fill="#FF5F00" d="M141.693 33.196h8.629v15.547h-8.629V33.196z"/>
  <path fill="#EB001B" d="M142.213 41.007c0-3.05 1.413-5.877 3.794-7.811-4.314-3.347-10.488-2.604-13.91 1.637-3.347 4.314-2.604 10.488 1.637 13.91a9.834 9.834 0 0 0 12.199 0c-2.306-1.86-3.72-4.686-3.72-7.736z"/>
  <path fill="#F79E1B" d="M162 41.007c0 5.43-4.389 9.893-9.893 9.893a9.92 9.92 0 0 1-6.1-2.083c4.314-3.347 5.058-9.596 1.637-13.836-.521-.595-1.041-1.19-1.637-1.637 4.314-3.347 10.488-2.604 13.836 1.637 1.413 1.637 2.157 3.794 2.157 6.026z"/>
  <path fill="#0958A0" d="M79.088 48.093h-3.575l2.249-13.782h3.575l-2.249 13.782zm12.975-13.436c-.692-.288-1.845-.577-3.229-.577-3.518 0-5.997 1.903-5.997 4.556-.058 1.961 1.788 3.056 3.114 3.748 1.384.692 1.845 1.096 1.845 1.73 0 .923-1.096 1.326-2.134 1.326-1.442 0-2.191-.231-3.345-.75l-.461-.231-.519 3.114c.865.404 2.364.692 3.979.75 3.748 0 6.17-1.845 6.228-4.729 0-1.557-.923-2.768-2.999-3.748-1.269-.634-2.018-1.038-2.018-1.73 0-.577.634-1.211 2.076-1.211a5.553 5.553 0 0 1 2.653.519l.346.173.461-2.94zm4.729 8.534c.288-.807 1.442-3.864 1.442-3.864 0 .058.288-.807.461-1.326l.231 1.211s.692 3.287.807 3.979h-2.941zm4.382-8.88h-2.768c-.865 0-1.499.231-1.845 1.153l-5.305 12.687h3.748s.634-1.73.75-2.076h4.556c.115.461.404 2.076.404 2.076H104l-2.826-13.84zm-28.603 0l-3.518 9.4-.404-1.903c-.634-2.191-2.653-4.613-4.959-5.767l3.229 12.052h3.748l5.594-13.782h-3.69z"/>
  <path fill="#F7A520" d="M65.824 34.311h-5.766l-.058.23c4.498 1.153 7.439 3.921 8.65 7.208l-1.269-6.343c-.173-.865-.807-1.095-1.557-1.095z"/>
  <path fill="#FFCF00" d="M219.571 39.126c0-.992.083-1.621 2.136-3.153 1.7-1.269 7.149-5.605 7.149-5.605v7.239H233v10.418h-12.134a1.297 1.297 0 0 1-1.294-1.294l-.001-7.605z"/>
  <path fill="#D7B000" d="M228.856 37.606V41.8l-7.614 5.187 9.627-3.132v-6.249h-2.013z"/>
  <path fill="#1D1D1B" d="M225.377 37.389c.445-.531 1.096-.718 1.453-.418s.286.973-.16 1.503c-.445.531-1.096.718-1.453.418s-.285-.973.16-1.503"/>
  <path fill="red" d="M187.961 43.592l-1.712 3.844H185l1.88-4.111c-.884-.449-1.473-1.263-1.473-2.764 0-2.105 1.333-3.157 2.919-3.157h1.614v10.032h-1.08v-3.844h-.899zm.898-5.276h-.575c-.87 0-1.712.575-1.712 2.245 0 1.614.772 2.133 1.712 2.133h.575v-4.378z"/>
  <path d="M195.146 40.364v7.072h-1.08v-3.171h-1.628v3.171h-1.095v-7.072h1.095v3.002h1.628v-3.002h1.08zm5.626 8.461h-.982v-1.389h-3.031v1.389h-.982v-2.287h.435c.645-1.502.716-3.69.716-5.57v-.603h3.283v6.174h.561v2.286zm-1.641-7.577h-1.221v.126c0 1.487-.07 3.662-.659 5.163h1.88v-5.289zm4.658 6.286c-1.459 0-2.357-1.164-2.357-3.339 0-2.273.631-3.929 2.133-3.929 1.179 0 1.95.884 1.95 3.283v.604h-2.947c0 1.6.449 2.442 1.319 2.442.617 0 1.109-.281 1.389-.477l.253.841c-.449.351-1.038.575-1.74.575zm-1.206-4.279h1.81c0-1.207-.197-2.091-.828-2.091-.674 0-.912.828-.982 2.091zm5.149.659v3.522h-1.094v-7.072h1.094v3.269l1.698-3.269h1.109l-1.754 3.325 2.006 3.746h-1.193l-1.866-3.521zm3.199-.014c0-2.217.856-3.634 2.512-3.634.631 0 .996.168 1.305.365l-.154 1.039c-.295-.253-.716-.491-1.165-.491-.786 0-1.347.884-1.347 2.666 0 1.768.421 2.778 1.305 2.778.533 0 .94-.211 1.193-.435l.253.814c-.379.323-.828.533-1.473.533-1.517-.001-2.429-1.221-2.429-3.635z"/>
  <g>
    <linearGradient id="a" gradientUnits="userSpaceOnUse" x1="737.273" y1="21.437" x2="737.339" y2="21.437" gradientTransform="matrix(201.7633 0 0 79 -148472.375 -1656)">
      <stop offset="0" stop-color="#00a0e5"/>
      <stop offset="1" stop-color="#0077c3"/>
    </linearGradient>
    <path fill="url(#a)" d="M282.16 34.922c.23 2.913 2.99 5.213 6.363 5.213h6.9c.077-.23.077-.537.077-.843 0-2.453-1.917-4.37-4.37-4.37h-8.97z"/>
    <path fill="#37A72E" d="M282.697 40.825v7.13h3.987v-4.217h4.523c1.917 0 3.527-1.227 4.14-2.913h-12.65zm-6.364-.767c.077-.077.153-.153.23-.153.153 0 .23.077.23.23v7.743h3.987V34.922h-3.987c-.537 0-1.073.383-1.303.843l-3.143 6.747v.077c-.077.077-.153.077-.23.077-.153 0-.23-.153-.23-.23v-7.513H267.9V47.88h3.987c.46 0 1.073-.383 1.227-.843l3.219-6.979zm-14.873.23l-2.3 7.59h-2.837l-2.3-7.59c0-.153-.153-.23-.23-.23-.153 0-.23.153-.23.23v7.513H249.5V34.845h4.37c.767 0 1.533.537 1.687 1.227l1.917 6.287c.077.307.23.307.383 0l1.917-6.287c.23-.69.997-1.227 1.687-1.227h4.37v12.957h-3.987v-7.513c0-.153-.153-.23-.23-.23-.001-.001-.077.153-.154.229z"/>
  </g>
</svg>